<svg width="389" height="389" viewBox="0 0 389 389" fill="none" xmlns="http://www.w3.org/2000/svg">
<circle cx="194.5" cy="194.5" r="194.5" fill="#282828"/>
<rect x="170" y="215" width="82" height="51" rx="5" transform="rotate(90 170 215)" fill="#FFFBF1"/>
<path d="M228.5 111C270.75 111 305 145.25 305 187.5C305 229.75 270.75 264 228.5 264L124 264C121.239 264 119 261.761 119 259L119 218C119 215.239 121.239 213 124 213L228.997 213C228.998 213 229 212.998 229 212.997C229 212.995 229.002 212.993 229.003 212.993C242.854 212.725 254 201.415 254 187.5C254 173.585 242.854 162.275 229.003 162.007C229.002 162.007 229 162.005 229 162.003C229 162.002 228.998 162 228.997 162L124 162C121.239 162 119 159.761 119 157L119 116C119 113.239 121.239 111 124 111L228.5 111Z" fill="#FFFBF1"/>
</svg>
