<svg width="1266" height="186" viewBox="0 0 1266 186" fill="none" xmlns="http://www.w3.org/2000/svg">
<rect x="51" y="104" width="82" height="51" rx="5" transform="rotate(90 51 104)" fill="#282828"/>
<path d="M109.5 -4.78639e-06C151.75 -6.63319e-06 186 34.2502 186 76.5C186 118.75 151.75 153 109.5 153L5 153C2.23858 153 -9.78513e-08 150.761 -2.18557e-07 148L-2.01072e-06 107C-2.13143e-06 104.239 2.23857 102 5 102L109.997 102C109.998 102 110 101.998 110 101.997C110 101.995 110.002 101.993 110.003 101.993C123.854 101.725 135 90.4151 135 76.5C135 62.5849 123.854 51.2751 110.003 51.0069C110.002 51.0069 110 51.0053 110 51.0034C110 51.0015 109.998 51 109.997 51L5 51C2.23857 51 -4.55641e-06 48.7614 -4.67712e-06 46L-6.46929e-06 5C-6.58999e-06 2.23858 2.23857 -9.78476e-08 4.99999 -2.18553e-07L109.5 -4.78639e-06Z" fill="#282828"/>
<path d="M325.5 0C367.75 1.76765e-06 402 34.2502 402 76.5C402 100.94 390.538 122.702 372.698 136.707C370.948 138.081 370.19 140.397 370.919 142.498L383.699 179.362C384.825 182.611 382.413 186 378.975 186H338.559C336.428 186 334.532 184.65 333.834 182.638L324.725 156.362C324.027 154.35 322.131 153 320.001 153H272C269.239 153 267 155.239 267 158V181C267 183.761 264.761 186 262 186H221C218.239 186 216 183.761 216 181V5C216 2.23857 218.239 0 221 0H325.5ZM267 97C267 99.7614 269.239 102 272 102H325.997C325.998 102 326 101.998 326 101.997C326 101.995 326.002 101.993 326.003 101.993C339.854 101.725 351 90.4151 351 76.5C351 62.5849 339.854 51.2751 326.003 51.0069C326.002 51.0069 326 51.0053 326 51.0035C326 51.0015 325.998 51 325.997 51H272C269.239 51 267 53.2386 267 56V97Z" fill="#282828"/>
<path d="M525 0C576.362 0 618 41.6375 618 93C618 144.362 576.362 186 525 186C473.638 186 432 144.362 432 93C432 41.6375 473.638 0 525 0ZM525 51C501.804 51 483 69.804 483 93C483 116.196 501.804 135 525 135C548.196 135 567 116.196 567 93C567 69.804 548.196 51 525 51Z" fill="#282828"/>
<path d="M696.929 0C698.255 0 699.527 0.526784 700.464 1.46447L737.464 38.4645C739.417 40.4171 742.583 40.4171 744.536 38.4645L781.536 1.46447C782.473 0.526784 783.745 0 785.071 0H829C831.761 0 834 2.23858 834 5V181C834 183.761 831.761 186 829 186H788C785.239 186 783 183.761 783 181V84.0711C783 79.6165 777.614 77.3857 774.464 80.5355L744.536 110.464C742.583 112.417 739.417 112.417 737.464 110.464L707.536 80.5355C704.386 77.3857 699 79.6165 699 84.0711V181C699 183.761 696.761 186 694 186H653C650.239 186 648 183.761 648 181V5C648 2.23857 650.239 0 653 0H696.929Z" fill="#282828"/>
<path d="M932 92.5C932 78.4167 943.417 67 957.5 67H1045C1047.76 67 1050 69.2386 1050 72V113C1050 115.761 1047.76 118 1045 118H957.5C943.417 118 932 106.583 932 92.5V92.5Z" fill="#C8A379"/>
<path d="M1050 46C1050 48.7614 1047.76 51 1045 51H957C933.804 51 915 69.804 915 93C915 116.196 933.804 135 957 135H1045C1047.76 135 1050 137.239 1050 140V181C1050 183.761 1047.76 186 1045 186H957C905.638 186 864 144.362 864 93C864 41.6375 905.638 0 957 0H1045C1047.76 0 1050 2.23858 1050 5V46Z" fill="#282828"/>
<path d="M1189.5 0C1231.75 1.76765e-06 1266 34.2502 1266 76.5C1266 100.94 1254.54 122.702 1236.7 136.707C1234.95 138.081 1234.19 140.397 1234.92 142.498L1247.7 179.362C1248.82 182.611 1246.41 186 1242.97 186H1202.56C1200.43 186 1198.53 184.65 1197.83 182.638L1188.73 156.362C1188.03 154.35 1186.13 153 1184 153H1136C1133.24 153 1131 155.239 1131 158V181C1131 183.761 1128.76 186 1126 186H1085C1082.24 186 1080 183.761 1080 181V5C1080 2.23857 1082.24 0 1085 0H1189.5ZM1131 97C1131 99.7614 1133.24 102 1136 102H1190C1190 102 1190 101.998 1190 101.997C1190 101.995 1190 101.993 1190 101.993C1203.85 101.725 1215 90.4151 1215 76.5C1215 62.5849 1203.85 51.2751 1190 51.0069C1190 51.0069 1190 51.0053 1190 51.0035C1190 51.0015 1190 51 1190 51H1136C1133.24 51 1131 53.2386 1131 56V97Z" fill="#282828"/>
</svg>
