<svg width="1086" height="186" viewBox="0 0 1086 186" fill="none" xmlns="http://www.w3.org/2000/svg">
<rect x="51" y="104" width="82" height="51" rx="5" transform="rotate(90 51 104)" fill="#FFFBF1"/>
<path d="M109.5 -4.7864e-06C151.75 -6.63319e-06 186 34.2502 186 76.5C186 118.75 151.75 153 109.5 153L5 153C2.23858 153 -9.78513e-08 150.761 -2.18557e-07 148L-2.01072e-06 107C-2.13143e-06 104.239 2.23857 102 5 102L109.997 102C109.998 102 110 101.998 110 101.997C110 101.995 110.002 101.993 110.003 101.993C123.854 101.725 135 90.4151 135 76.5C135 62.5849 123.854 51.2751 110.003 51.0069C110.002 51.0069 110 51.0053 110 51.0034C110 51.0015 109.998 51 109.997 51L5 51C2.23857 51 -4.55641e-06 48.7614 -4.67712e-06 46L-6.46929e-06 5C-6.58999e-06 2.23857 2.23857 -9.78513e-08 4.99999 -2.18557e-07L109.5 -4.7864e-06Z" fill="#FFFBF1"/>
<path d="M318 0C369.362 0 411 41.6375 411 93C411 144.362 369.362 186 318 186C266.638 186 225 144.362 225 93C225 41.6375 266.638 0 318 0ZM318 51C294.804 51 276 69.804 276 93C276 116.196 294.804 135 318 135C341.196 135 360 116.196 360 93C360 69.804 341.196 51 318 51Z" fill="#FFFBF1"/>
<path d="M498.929 0C500.255 0 501.527 0.526784 502.464 1.46447L539.464 38.4645C541.417 40.4171 544.583 40.4171 546.536 38.4645L583.536 1.46447C584.473 0.526784 585.745 0 587.071 0H631C633.761 0 636 2.23858 636 5V181C636 183.761 633.761 186 631 186H590C587.239 186 585 183.761 585 181V84.0711C585 79.6165 579.614 77.3857 576.464 80.5355L546.536 110.464C544.583 112.417 541.417 112.417 539.464 110.464L509.536 80.5355C506.386 77.3857 501 79.6165 501 84.0711V181C501 183.761 498.761 186 496 186H455C452.239 186 450 183.761 450 181V5C450 2.23857 452.239 0 455 0H498.929Z" fill="#FFFBF1"/>
<path d="M743 92.5C743 78.4167 754.417 67 768.5 67H856C858.761 67 861 69.2386 861 72V113C861 115.761 858.761 118 856 118H768.5C754.417 118 743 106.583 743 92.5Z" fill="#C8A379"/>
<path d="M861 46C861 48.7614 858.761 51 856 51H768C744.804 51 726 69.804 726 93C726 116.196 744.804 135 768 135H856C858.761 135 861 137.239 861 140V181C861 183.761 858.761 186 856 186H768C716.638 186 675 144.362 675 93C675 41.6375 716.638 0 768 0H856C858.761 0 861 2.23858 861 5V46Z" fill="#FFFBF1"/>
<path d="M1009.5 0C1051.75 1.76765e-06 1086 34.2502 1086 76.5C1086 100.94 1074.54 122.702 1056.7 136.707C1054.95 138.081 1054.19 140.397 1054.92 142.498L1067.7 179.362C1068.82 182.611 1066.41 186 1062.97 186H1022.56C1020.43 186 1018.53 184.65 1017.83 182.638L1008.73 156.362C1008.03 154.35 1006.13 153 1004 153H956C953.239 153 951 155.239 951 158V181C951 183.761 948.761 186 946 186H905C902.239 186 900 183.761 900 181V5C900 2.23857 902.239 0 905 0H1009.5ZM951 97C951 99.7614 953.239 102 956 102H1010C1010 102 1010 101.998 1010 101.997C1010 101.995 1010 101.993 1010 101.993C1023.85 101.725 1035 90.4151 1035 76.5C1035 62.5849 1023.85 51.2751 1010 51.0069C1010 51.0069 1010 51.0053 1010 51.0035C1010 51.0015 1010 51 1010 51H956C953.239 51 951 53.2386 951 56V97Z" fill="#FFFBF1"/>
</svg>
